<svg xmlns="http://www.w3.org/2000/svg" viewBox="0 0 438.65 287.32"><defs><style>.cls-1{fill:#ec3237;}</style></defs><g id="Layer_2" data-name="Layer 2"><g id="Layer_1-2" data-name="Layer 1"><path d="M160.41,46.57v1.21h-81V46.57c0-4.41,2.36-7.79,6.17-10l2.17-1.24V30.46a20.22,20.22,0,0,1,5.69-14,24.42,24.42,0,0,1,5.51-4.22,24.05,24.05,0,0,1,4.29-1.88c.69,4.67,1.41,9.34,2.1,14A3.12,3.12,0,0,0,108.38,27a3.09,3.09,0,0,0,3.1-3.1V14.42A35.61,35.61,0,0,0,109.24,2,28.63,28.63,0,0,1,114.67.48a31.76,31.76,0,0,1,5-.48,27.6,27.6,0,0,1,5.46.48A29.49,29.49,0,0,1,130.54,2a35.84,35.84,0,0,0-2.24,12.42v9.46a3.11,3.11,0,0,0,6.18.48c.69-4.7,1.4-9.37,2.09-14a23.75,23.75,0,0,1,4.29,1.88,24.42,24.42,0,0,1,5.51,4.22,20.18,20.18,0,0,1,5.69,14v4.88l2.17,1.24C158.05,38.78,160.41,42.16,160.41,46.57Z"/><path d="M92.16,52.24l22.08-2.08-29.57-.25v14.2H81.79s-.59,9.67,3.65,13.32v6.13L76.6,90.75h8.49V97s-4.48,8.61-12.49,11.43c0,0,22.39,3.54,31.54-4.87l.9.63s3.6,2.13,6.82,3.78a17.18,17.18,0,0,0,7.83,1.88h.59a17.1,17.1,0,0,0,12.15-5,17.93,17.93,0,0,0,2.51-3l.07.06a34.13,34.13,0,0,0,21.17,7.31h10.75s-9.72-9.25-13.1-16.64V90.67a48.82,48.82,0,0,0,10.37,2s-8.95-6.44-9.9-11.23V76.05s3.93-1.88,4.17-4.87V61.91a6.88,6.88,0,0,0-4.17-2.43V49.91h-5.46V62.23h4.6s-1.6,26.49-23.24,39.83a16.53,16.53,0,0,1-8.71,2.36h-1.26a17.12,17.12,0,0,1-9.65-3A62.58,62.58,0,0,1,87.52,72.52V63.41h4.4V52.67"/><path d="M70,124v45h0a7,7,0,0,0-7,6.95v7.54H48.32V145.66A21.68,21.68,0,0,1,70,124Z"/><path d="M172.3,124v45h0a7,7,0,0,1,6.95,6.95v7.54H194V145.66A21.68,21.68,0,0,0,172.3,124Z"/><path d="M157.45,127.84v55.64H84.86V127.84a12.48,12.48,0,0,1,7.08-11.28l2.83-1.38s5.17,35.44,26.39,43.45c21.21-8,26.38-43.45,26.38-43.45l2.83,1.38A12.52,12.52,0,0,1,157.45,127.84Z"/><path d="M218.73,190.68H53.27A53.27,53.27,0,0,0,0,244v43.37H165.46a53.27,53.27,0,0,0,53.27-53.27Z"/><path class="cls-1" d="M218.73,190.68H384.19a53.27,53.27,0,0,0,53.27-53.26V94.05H272a53.27,53.27,0,0,0-53.27,53.26Z"/><path class="cls-1" d="M296.58,253.79h-9.87A25.13,25.13,0,1,1,287,224.9h9.79c-.55-1.09-.64-1.28-1.43-2.79l5.75-5.72-2.41-3.33-7.2,3.72c-1.45-1.43-1.38-1.39-2.81-2.82l3.69-7.19-3.31-2.43-5.72,5.76-3.53-1.81,1.29-8L277.2,199l-3.64,7.25c-2-.34-1.93-.31-3.94-.62l-1.21-8h-4.12l-1.24,8c-2,.31-1.93.28-3.94.62L255.47,199l-3.91,1.29,1.29,8c-1.79.93-1.72.88-3.53,1.81l-5.7-5.76-3.33,2.43L244,214c-1.43,1.43-1.36,1.39-2.79,2.82L234,213.06l-2.44,3.33,5.75,5.72c-.91,1.79-.88,1.72-1.79,3.53l-8-1.31c-.74,2.26-.52,1.67-1.26,3.93l7.22,3.65c-.31,2-.31,1.91-.62,3.91l-8,1.24v4.12l8,1.24c.31,2,.31,1.91.62,3.91L226.25,250c.74,2.27.52,1.67,1.26,3.94l8-1.32c.91,1.82.88,1.74,1.79,3.56l-5.75,5.69,2.44,3.34,7.19-3.72c1.43,1.43,1.36,1.38,2.79,2.81l-3.69,7.2,3.33,2.43,5.7-5.74c1.81.9,1.74.85,3.53,1.78l-1.29,8,3.91,1.26,3.64-7.22c2,.31,1.93.29,3.94.62l1.24,8h4.12l1.21-8c2-.33,1.93-.31,3.94-.62l3.64,7.22,3.91-1.26-1.29-8c1.82-.93,1.72-.88,3.53-1.78l5.72,5.74,3.31-2.43-3.69-7.2c1.43-1.43,1.36-1.38,2.81-2.81l7.2,3.72c1.4-1.93,1-1.41,2.41-3.34l-5.75-5.69Z"/><path class="cls-1" d="M368.13,256.15l-5.74,5.69c1.38,1.93,1,1.41,2.4,3.34l7.2-3.72c1.45,1.43,1.38,1.38,2.81,2.81l-3.69,7.2,3.31,2.43,5.72-5.74c1.81.9,1.72.85,3.53,1.78l-1.29,8,3.91,1.26,3.64-7.22c2,.31,1.94.29,3.94.62l1.21,8h4.13l1.23-8c2-.33,1.94-.31,3.94-.62l3.64,7.22,3.91-1.26-1.29-8c1.79-.93,1.72-.88,3.53-1.78l5.7,5.74,3.33-2.43-3.69-7.2c1.43-1.43,1.36-1.38,2.79-2.81l7.2,3.72,2.43-3.34-5.75-5.69c.91-1.82.88-1.74,1.79-3.56l8,1.32c.74-2.27.52-1.67,1.26-3.94L430,246.33c.31-2,.31-1.91.62-3.91l8-1.24v-4.12l-8-1.24c-.31-2-.31-1.91-.62-3.91l7.22-3.65c-.74-2.26-.52-1.67-1.26-3.93l-8,1.31c-.91-1.81-.88-1.74-1.79-3.53l5.75-5.72c-1.41-1.93-1-1.4-2.43-3.33l-7.2,3.72c-1.43-1.43-1.36-1.39-2.79-2.82l3.69-7.19-3.33-2.43-5.7,5.76c-1.81-.93-1.74-.88-3.53-1.81l1.29-8L408,199l-3.64,7.25c-2-.34-1.93-.31-3.94-.62l-1.23-8h-4.13l-1.21,8c-2,.31-1.93.28-3.94.62L386.29,199l-3.91,1.29,1.29,8-3.53,1.81-5.72-5.76-3.31,2.43L374.8,214c-1.43,1.43-1.36,1.39-2.81,2.82l-7.2-3.72c-1.4,1.93-1,1.4-2.4,3.33l5.74,5.72c-.79,1.51-.88,1.7-1.43,2.79h9.79a25.08,25.08,0,1,1,.29,28.89h-9.87Z"/><path class="cls-1" d="M394.15,244.66a5.46,5.46,0,0,1-5.48-5.48,5.48,5.48,0,0,1,5.48-5.48h14.51a15,15,0,0,0-26.93-1.65h-100a15,15,0,0,0-26.93,1.65h14.51a5.48,5.48,0,0,1,5.48,5.48,5.45,5.45,0,0,1-5.48,5.48H254.71a15,15,0,0,0,27,2h100a15,15,0,0,0,27-2Z"/></g></g></svg>