<svg xmlns="http://www.w3.org/2000/svg" viewBox="0 0 526.64 257.14"><defs><style>.cls-1{fill:#ec3237;}</style></defs><g id="Layer_2" data-name="Layer 2"><g id="Layer_1-2" data-name="Layer 1"><path d="M108.92,31.32v.82H54.42v-.82a7.56,7.56,0,0,1,4.15-6.71L60,23.77V20.49a13.57,13.57,0,0,1,3.83-9.44,16.11,16.11,0,0,1,3.71-2.84,16.78,16.78,0,0,1,2.88-1.27c.47,3.14,1,6.29,1.41,9.44a2.1,2.1,0,0,0,2.07,1.77A2.08,2.08,0,0,0,76,16.06V9.7a24,24,0,0,0-1.5-8.35,19.11,19.11,0,0,1,3.65-1A22,22,0,0,1,81.51,0a18.71,18.71,0,0,1,3.67.32,19.56,19.56,0,0,1,3.66,1A23.81,23.81,0,0,0,87.33,9.7v6.36a2.08,2.08,0,0,0,2.08,2.09,2.1,2.1,0,0,0,2.07-1.77c.47-3.15,1-6.3,1.41-9.44a16.81,16.81,0,0,1,2.89,1.27,16.08,16.08,0,0,1,3.7,2.84,13.57,13.57,0,0,1,3.83,9.44v3.28l1.46.84A7.56,7.56,0,0,1,108.92,31.32Z"/><path d="M63,35.14l14.85-1.4L58,33.57v9.55H56s-.39,6.5,2.46,9V56.2L52.56,61h5.7v4.2s-3,5.78-8.4,7.69c0,0,15.06,2.37,21.22-3.28l.6.42s2.42,1.43,4.59,2.54a11.51,11.51,0,0,0,5.27,1.27h.39a11.51,11.51,0,0,0,8.17-3.37,11.93,11.93,0,0,0,1.69-2l0,0a23,23,0,0,0,14.24,4.92h7.23s-6.54-6.22-8.81-11.19V61a32.86,32.86,0,0,0,7,1.38s-6-4.34-6.66-7.56V51.15s2.64-1.26,2.8-3.27V41.64a4.62,4.62,0,0,0-2.8-1.64V33.57h-3.68v8.28h3.1s-1.08,17.82-15.63,26.79a11.2,11.2,0,0,1-5.86,1.59H81.9a11.47,11.47,0,0,1-6.49-2A42,42,0,0,1,59.9,48.78V42.65h3V35.43"/><path d="M48.12,83.39v30.28h0a4.67,4.67,0,0,0-4.68,4.67v5.08H33.53V98A14.59,14.59,0,0,1,48.12,83.39Z"/><path d="M116.92,83.39v30.28h0a4.68,4.68,0,0,1,4.68,4.67v5.08h9.9V98a14.58,14.58,0,0,0-14.58-14.58Z"/><path d="M106.93,86v37.43H58.11V86a8.37,8.37,0,0,1,4.76-7.58l1.91-.93s3.48,23.83,17.74,29.22c14.27-5.39,17.75-29.22,17.75-29.22l1.9.93A8.41,8.41,0,0,1,106.93,86Z"/><path d="M148.15,128.25H36.86A35.83,35.83,0,0,0,1,164.08v29.17H112.32a35.83,35.83,0,0,0,35.83-35.83Z"/><path class="cls-1" d="M148.15,128.25H259.44a35.83,35.83,0,0,0,35.82-35.83V63.25H184a35.83,35.83,0,0,0-35.83,35.83Z"/><path class="cls-1" d="M200.51,170.69h-6.64a16.9,16.9,0,1,1,.2-19.42h6.58c-.36-.74-.43-.87-1-1.88l3.87-3.85-1.62-2.24-4.84,2.5c-1-1-.93-.93-1.9-1.89l2.49-4.84-2.23-1.64-3.85,3.88-2.37-1.21.87-5.37-2.63-.87L185,138.73c-1.35-.22-1.3-.21-2.65-.41l-.82-5.39h-2.77l-.83,5.39c-1.35.2-1.3.19-2.65.41l-2.45-4.87-2.63.87.87,5.37-2.38,1.21-3.83-3.88-2.24,1.64,2.48,4.84c-1,1-.91.93-1.87,1.89l-4.84-2.5-1.64,2.24,3.87,3.85c-.61,1.2-.6,1.16-1.21,2.37l-5.38-.88c-.5,1.53-.36,1.12-.85,2.65l4.85,2.45c-.2,1.35-.2,1.28-.41,2.63l-5.39.83v2.78l5.39.83c.21,1.35.21,1.28.41,2.63l-4.85,2.45c.49,1.52.35,1.12.85,2.64l5.38-.88c.61,1.22.6,1.17,1.21,2.39l-3.87,3.83,1.64,2.25,4.84-2.5c1,1,.91.93,1.87,1.89l-2.48,4.84,2.24,1.63,3.83-3.86,2.38,1.2-.87,5.39c1.52.48,1.11.35,2.63.85l2.45-4.86c1.35.21,1.3.19,2.65.42l.83,5.37h2.77l.82-5.37c1.35-.23,1.3-.21,2.65-.42l2.45,4.86c1.52-.5,1.1-.37,2.63-.85l-.87-5.39,2.37-1.2,3.85,3.86c1.28-.94.93-.69,2.23-1.63l-2.49-4.84c1-1,.92-.93,1.9-1.89l4.84,2.5,1.62-2.25-3.87-3.83C200.14,171.42,200.25,171.19,200.51,170.69Z"/><path class="cls-1" d="M248.63,172.28l-3.86,3.83c.93,1.3.67.95,1.62,2.25l4.84-2.5c1,1,.93.93,1.89,1.89l-2.48,4.84c1.3.94.94.69,2.23,1.63l3.84-3.86,2.38,1.2-.87,5.39c1.52.48,1.11.35,2.63.85l2.45-4.86c1.35.21,1.3.19,2.65.42l.81,5.37h2.78l.83-5.37c1.35-.23,1.3-.21,2.64-.42l2.46,4.86c1.52-.5,1.1-.37,2.63-.85l-.87-5.39c1.2-.62,1.15-.59,2.37-1.2l3.83,3.86,2.25-1.63-2.49-4.84,1.88-1.89,4.84,2.5,1.63-2.25-3.86-3.83,1.2-2.39,5.39.88c.5-1.52.35-1.12.85-2.64l-4.86-2.45c.21-1.35.21-1.28.42-2.63l5.38-.83v-2.78l-5.38-.83c-.21-1.35-.21-1.28-.42-2.63l4.86-2.45c-.5-1.53-.35-1.12-.85-2.65l-5.39.88-1.2-2.37,3.86-3.85-1.63-2.24-4.84,2.5-1.88-1.89,2.49-4.84-2.25-1.64-3.83,3.88-2.37-1.21.87-5.37-2.63-.87L273,138.73c-1.34-.22-1.29-.21-2.64-.41l-.83-5.39h-2.78l-.81,5.39c-1.35.2-1.3.19-2.65.41l-2.45-4.87-2.63.87.87,5.37-2.38,1.21-3.84-3.88-2.23,1.64,2.48,4.84c-1,1-.91.93-1.89,1.89l-4.84-2.5c-.95,1.3-.69.95-1.62,2.24l3.86,3.85c-.52,1-.59,1.14-1,1.88h6.59a16.88,16.88,0,1,1,.19,19.42h-6.63Z"/><path class="cls-1" d="M266.14,164.56a3.67,3.67,0,0,1-3.69-3.69,3.69,3.69,0,0,1,3.69-3.69h9.76a10.07,10.07,0,0,0-18.12-1.1H190.54a10.06,10.06,0,0,0-18.11,1.1h9.76a3.69,3.69,0,0,1,3.69,3.69,3.69,3.69,0,0,1-3.69,3.69h-9.84a10.06,10.06,0,0,0,18.2,1.32h67.23a10.06,10.06,0,0,0,18.2-1.32Z"/><path class="cls-1" d="M363.94,32a74.25,74.25,0,0,0-10.31-3.75,70.08,70.08,0,0,1-7.18-2.49A12.65,12.65,0,0,1,342.17,23a5.89,5.89,0,0,1-1.72-4.35,7.16,7.16,0,0,1,2.28-5.73,9,9,0,0,1,6.07-2,10.62,10.62,0,0,1,7,2.22,7.52,7.52,0,0,1,2.83,5.57h14.29Q372.28,9.88,366,5T349.74,0a29.36,29.36,0,0,0-11.89,2.3A18.31,18.31,0,0,0,329.79,9a17.69,17.69,0,0,0-2.89,10.12c0,4.12.94,7.43,2.83,9.88a18,18,0,0,0,6.78,5.54,76,76,0,0,0,10.26,3.7c3.09.88,5.51,1.68,7.28,2.38a12.54,12.54,0,0,1,4.41,3,6.69,6.69,0,0,1,1.77,4.79,7.22,7.22,0,0,1-2.6,5.77,10.79,10.79,0,0,1-7.15,2.19,9.94,9.94,0,0,1-7-2.34,9,9,0,0,1-2.83-6.38H326.73A17.87,17.87,0,0,0,330,58a20,20,0,0,0,8.6,6.73,30.14,30.14,0,0,0,12.2,2.36,27,27,0,0,0,12.35-2.67A19.28,19.28,0,0,0,371,57.22a18.75,18.75,0,0,0,2.68-9.75c0-4.07-.95-7.34-2.88-9.83A18.36,18.36,0,0,0,363.94,32Z"/><polygon class="cls-1" points="423.01 1.05 376.11 1.05 376.11 13.81 392.75 13.81 392.75 64.77 405.34 64.77 405.34 13.81 423.01 13.81 423.01 1.05"/><polygon class="cls-1" points="468.95 64.77 468.95 52.01 442.57 52.01 442.57 39.29 468.95 39.29 468.95 26.52 442.57 26.52 442.57 13.81 468.95 13.81 468.95 1.05 442.57 1.05 429.98 1.05 429.98 13.81 429.98 26.52 429.98 39.29 429.98 52.01 429.98 64.77 442.57 64.77 468.95 64.77"/><path class="cls-1" d="M491.49,46.18H503a22.57,22.57,0,1,0,0-45.13H478.9V64.77h12.59Zm0-32.91h10.45a10.45,10.45,0,0,1,0,20.9H491.49Z"/><path class="cls-1" d="M364,158.2a71.75,71.75,0,0,0-10.31-3.75,73.84,73.84,0,0,1-7.2-2.5,12.76,12.76,0,0,1-4.26-2.81,5.89,5.89,0,0,1-1.72-4.35,7.18,7.18,0,0,1,2.28-5.73,8.93,8.93,0,0,1,6.07-2,10.52,10.52,0,0,1,7,2.21,7.55,7.55,0,0,1,2.85,5.57H373q-.66-8.81-6.92-13.74t-16.28-4.92a29.36,29.36,0,0,0-11.89,2.3,18.42,18.42,0,0,0-8.08,6.61,17.86,17.86,0,0,0-2.87,10.12c0,4.12.94,7.43,2.83,9.89a17.88,17.88,0,0,0,6.78,5.53,75.76,75.76,0,0,0,10.25,3.7,76.37,76.37,0,0,1,7.29,2.39,12.62,12.62,0,0,1,4.4,3,6.75,6.75,0,0,1,1.77,4.79,7.19,7.19,0,0,1-2.6,5.77,10.69,10.69,0,0,1-7.14,2.19,10.07,10.07,0,0,1-7-2.33,9.22,9.22,0,0,1-2.83-6.39H326.73A18,18,0,0,0,330,184.16a20.17,20.17,0,0,0,8.58,6.74,30.41,30.41,0,0,0,12.2,2.35,26.82,26.82,0,0,0,12.35-2.67A19.15,19.15,0,0,0,371,183.4a18.59,18.59,0,0,0,2.7-9.75c0-4.07-1-7.34-2.88-9.83A18.39,18.39,0,0,0,364,158.2Z"/><polygon class="cls-1" points="423.02 127.23 376.12 127.23 376.12 140 392.76 140 392.76 190.95 405.36 190.95 405.36 140 423.02 140 423.02 127.23"/><polygon class="cls-1" points="429.99 127.23 429.99 140 429.99 152.71 429.99 165.48 429.99 178.19 429.99 190.96 442.58 190.96 468.97 190.96 468.97 178.19 442.58 178.19 442.58 165.48 468.97 165.48 468.97 152.71 442.58 152.71 442.58 140 468.97 140 468.97 127.23 442.58 127.23 429.99 127.23"/><path class="cls-1" d="M503,127.23H478.91V191h12.6V172.36H503a22.57,22.57,0,1,0,0-45.13ZM502,160.35H491.51v-20.9H502a10.45,10.45,0,0,1,0,20.9Z"/><path d="M417.46,97.37c.15-.13.31-.28.45-.42a11.94,11.94,0,0,0-8.45-20.4H392.07v41.84h19.42a11.36,11.36,0,0,0,6-21ZM399.19,83h8.92a5.52,5.52,0,0,1,5.53,5.53v.58a5.53,5.53,0,0,1-5.53,5.54h-8.92Zm16.19,24.33a5.52,5.52,0,0,1-5.53,5.53H399.53V101.12h10.32a5.53,5.53,0,0,1,5.53,5.54Z"/><polygon points="442.5 93.53 432.78 76.55 424.73 76.55 438.68 101.12 438.68 119.75 446.73 119.75 446.73 100.42 460.26 76.55 452.21 76.55 442.5 93.53"/><polygon points="0 221.44 10.99 221.44 10.99 256.76 13.45 256.76 13.45 221.44 24.47 221.44 24.47 219.42 0 219.42 0 221.44"/><polygon points="30.97 256.76 50.49 256.76 50.49 254.74 33.46 254.74 33.46 238.33 49.68 238.33 49.68 236.31 33.46 236.31 33.46 221.44 50.49 221.44 50.49 219.42 30.97 219.42 30.97 256.76"/><polygon points="124.71 236.66 102.17 236.66 102.17 219.42 99.68 219.42 99.68 256.76 102.17 256.76 102.17 238.68 124.71 238.68 124.71 256.76 127.19 256.76 127.19 219.42 124.71 219.42 124.71 236.66"/><polygon points="161.4 252.79 138.74 219.49 136.25 219.49 136.25 256.76 138.74 256.76 138.74 223.37 161.4 256.76 163.86 256.76 163.86 219.49 161.4 219.49 161.4 252.79"/><rect x="172.94" y="219.42" width="2.46" height="37.34"/><path d="M210.75,252.54a16.92,16.92,0,0,1-9.38,2.47,16,16,0,0,1-8.08-2.07,14.92,14.92,0,0,1-5.72-5.88,18.16,18.16,0,0,1-2.09-8.91,18.53,18.53,0,0,1,2.09-9,14.55,14.55,0,0,1,5.72-5.91,16.2,16.2,0,0,1,8.08-2,16.92,16.92,0,0,1,9.38,2.48,13.58,13.58,0,0,1,4,3.92h3a16.71,16.71,0,0,0-5.22-5.55,19.78,19.78,0,0,0-11.11-3,18.41,18.41,0,0,0-9.43,2.44,17.35,17.35,0,0,0-6.6,6.78,21.45,21.45,0,0,0,0,19.68,17.23,17.23,0,0,0,6.6,6.76,18.6,18.6,0,0,0,9.43,2.42,19.7,19.7,0,0,0,11.11-3,17,17,0,0,0,6-7h-2.87A13.74,13.74,0,0,1,210.75,252.54Z"/><path d="M85,252.54A16.92,16.92,0,0,1,75.57,255a16,16,0,0,1-8.08-2.07,14.92,14.92,0,0,1-5.72-5.88,18.16,18.16,0,0,1-2.09-8.91,18.53,18.53,0,0,1,2.09-9,14.55,14.55,0,0,1,5.72-5.91,16.2,16.2,0,0,1,8.08-2A16.92,16.92,0,0,1,85,223.66a13.58,13.58,0,0,1,4,3.92h3A16.71,16.71,0,0,0,86.68,222a19.78,19.78,0,0,0-11.11-3,18.41,18.41,0,0,0-9.43,2.44,17.49,17.49,0,0,0-6.6,6.78,21.45,21.45,0,0,0,0,19.68,17.37,17.37,0,0,0,6.6,6.76,18.6,18.6,0,0,0,9.43,2.42,19.7,19.7,0,0,0,11.11-3,16.91,16.91,0,0,0,5.95-7H89.76A13.66,13.66,0,0,1,85,252.54Z"/><path d="M235.08,220.28,220.9,256.76h2.67l3.7-9.57h18.31l3.69,9.57H252l-14.15-36.48Zm-7,24.89,8.41-21.75,8.36,21.75Z"/><polygon points="260.66 219.42 258.17 219.42 258.17 256.76 275 256.76 275 254.74 260.66 254.74 260.66 219.42"/><path d="M316.94,239a46.65,46.65,0,0,0-6-1.95,39.16,39.16,0,0,1-5.42-1.67,8.61,8.61,0,0,1-3.39-2.44,6.64,6.64,0,0,1-1.37-4.35,6.55,6.55,0,0,1,2.65-5.44,10.14,10.14,0,0,1,6.48-2,11.29,11.29,0,0,1,4.93,1,8.43,8.43,0,0,1,3.18,2.46,8.23,8.23,0,0,1,1.47,2.93h2.62a9.42,9.42,0,0,0-3.74-6,12.91,12.91,0,0,0-8.25-2.46,14.42,14.42,0,0,0-6.2,1.28,10.12,10.12,0,0,0-4.16,3.48,9.49,9.49,0,0,0,.11,10.32,9.53,9.53,0,0,0,3.86,3,43.14,43.14,0,0,0,6,1.93,49.46,49.46,0,0,1,5.41,1.69,8.3,8.3,0,0,1,3.35,2.4,6.42,6.42,0,0,1,1.35,4.3,7,7,0,0,1-1.14,3.9A7.92,7.92,0,0,1,315.4,254a11.31,11.31,0,0,1-5,1c-3.28,0-5.69-.76-7.3-2.27a9,9,0,0,1-2.83-5.23h-2.58a9.39,9.39,0,0,0,1.79,4.85,10.48,10.48,0,0,0,4.37,3.44,15.47,15.47,0,0,0,6.55,1.28,13.88,13.88,0,0,0,6.46-1.39,10.5,10.5,0,0,0,4-3.65,9,9,0,0,0,1.37-4.74,8.42,8.42,0,0,0-1.58-5.39A9.42,9.42,0,0,0,316.94,239Z"/><polygon points="329.72 256.76 349.23 256.76 349.23 254.74 332.2 254.74 332.2 239.05 347.58 239.05 347.58 237.03 332.2 237.03 332.2 221.44 349.23 221.44 349.23 219.42 329.72 219.42 329.72 256.76"/><path d="M377.7,237.22a10.24,10.24,0,0,0,2.51-7.11,10,10,0,0,0-3.23-7.76q-3.21-2.92-9.65-2.93H356.72v37.34h2.48V240.87h8.46l9.9,15.89h3l-10.1-16.1A11.51,11.51,0,0,0,377.7,237.22Zm-10.25,1.62H359.2V221.56h8.13q10.29,0,10.3,8.55a8.4,8.4,0,0,1-2.53,6.34C373.4,238.05,370.84,238.84,367.45,238.84Z"/><polygon points="400.61 253.95 387.25 219.42 384.55 219.42 399.24 256.76 401.98 256.76 416.71 219.42 414.08 219.42 400.61 253.95"/><rect x="422.71" y="219.42" width="2.49" height="37.34"/><path d="M443.06,223.23a16.1,16.1,0,0,1,8.09-2,16.82,16.82,0,0,1,9.36,2.46,13.76,13.76,0,0,1,5.48,6.74h2.86a17.09,17.09,0,0,0-6.6-8.34,19.64,19.64,0,0,0-11.1-3,18.27,18.27,0,0,0-9.44,2.46,17.38,17.38,0,0,0-6.6,6.79,21.39,21.39,0,0,0,0,19.65,17.2,17.2,0,0,0,6.6,6.77,18.53,18.53,0,0,0,9.44,2.41,19.63,19.63,0,0,0,11.1-3,17.18,17.18,0,0,0,6.6-8.34H466a13.73,13.73,0,0,1-5.48,6.71,16.83,16.83,0,0,1-9.36,2.49,15.94,15.94,0,0,1-8.09-2.09,14.87,14.87,0,0,1-5.72-5.86,18.34,18.34,0,0,1-2.09-8.92,18.72,18.72,0,0,1,2.09-9A14.59,14.59,0,0,1,443.06,223.23Z"/><polygon points="476.61 256.76 496.13 256.76 496.13 254.74 479.08 254.74 479.08 239.05 494.48 239.05 494.48 237.03 479.08 237.03 479.08 221.44 496.13 221.44 496.13 219.42 476.61 219.42 476.61 256.76"/><path d="M521.3,239a46.8,46.8,0,0,0-6-1.95,40.31,40.31,0,0,1-5.41-1.67,8.54,8.54,0,0,1-3.37-2.44,7.14,7.14,0,0,1,1.26-9.79,10.22,10.22,0,0,1,6.48-2,11.28,11.28,0,0,1,4.92,1,8.47,8.47,0,0,1,3.19,2.46,7.59,7.59,0,0,1,1.46,2.93h2.65a9.55,9.55,0,0,0-3.74-6,12.91,12.91,0,0,0-8.25-2.46,14.66,14.66,0,0,0-6.23,1.28,9.9,9.9,0,0,0-4.13,3.48,8.64,8.64,0,0,0-1.47,4.88,8.73,8.73,0,0,0,1.56,5.44,9.66,9.66,0,0,0,3.86,3,45,45,0,0,0,6,1.93,49.46,49.46,0,0,1,5.41,1.69,8.43,8.43,0,0,1,3.37,2.4,6.58,6.58,0,0,1,1.35,4.3,7.05,7.05,0,0,1-1.17,3.9,7.59,7.59,0,0,1-3.27,2.74,11.37,11.37,0,0,1-5,1c-3.26,0-5.7-.76-7.3-2.27a9,9,0,0,1-2.81-5.23h-2.6a9.56,9.56,0,0,0,1.79,4.85,10.51,10.51,0,0,0,4.36,3.44,15.67,15.67,0,0,0,6.56,1.28,13.76,13.76,0,0,0,6.46-1.39,10.29,10.29,0,0,0,4-3.65,9,9,0,0,0,1.37-4.74,8.41,8.41,0,0,0-1.56-5.39A9.56,9.56,0,0,0,521.3,239Z"/></g></g></svg>