<svg xmlns="http://www.w3.org/2000/svg" viewBox="0 0 295.03 193.25"><defs><style>.cls-1{fill:#fff;}.cls-2{fill:#ec3237;}</style></defs><g id="Layer_2" data-name="Layer 2"><g id="Layer_1-2" data-name="Layer 1"><path class="cls-1" d="M107.89,31.32v.82H53.39v-.82a7.56,7.56,0,0,1,4.15-6.71L59,23.77V20.49a13.57,13.57,0,0,1,3.83-9.44,16.08,16.08,0,0,1,3.7-2.84,16.81,16.81,0,0,1,2.89-1.27c.46,3.14.94,6.29,1.41,9.44a2.1,2.1,0,0,0,2.07,1.77A2.08,2.08,0,0,0,75,16.06V9.7a23.81,23.81,0,0,0-1.51-8.35,19.47,19.47,0,0,1,3.66-1A21.78,21.78,0,0,1,80.48,0a18.78,18.78,0,0,1,3.67.32,19.65,19.65,0,0,1,3.65,1A24,24,0,0,0,86.3,9.7v6.36a2.08,2.08,0,0,0,2.08,2.09,2.1,2.1,0,0,0,2.07-1.77c.46-3.15.94-6.3,1.41-9.44a16.78,16.78,0,0,1,2.88,1.27,16.11,16.11,0,0,1,3.71,2.84,13.57,13.57,0,0,1,3.83,9.44v3.28l1.46.84A7.56,7.56,0,0,1,107.89,31.32Z"/><path class="cls-1" d="M62,35.14l14.85-1.4L57,33.57v9.55H55s-.4,6.5,2.46,9V56.2L51.52,61h5.71v4.2s-3,5.78-8.4,7.69c0,0,15.06,2.37,21.21-3.28l.61.42s2.42,1.43,4.59,2.54a11.47,11.47,0,0,0,5.26,1.27h.4a11.51,11.51,0,0,0,8.17-3.37,12.43,12.43,0,0,0,1.69-2l0,0a23,23,0,0,0,14.24,4.92h7.23s-6.54-6.22-8.81-11.19V61a32.71,32.71,0,0,0,7,1.38s-6-4.34-6.66-7.56V51.15s2.65-1.26,2.8-3.27V41.64a4.62,4.62,0,0,0-2.8-1.64V33.57h-3.67v8.28h3.09s-1.07,17.82-15.63,26.79a11.15,11.15,0,0,1-5.86,1.59h-.84a11.45,11.45,0,0,1-6.49-2A42,42,0,0,1,58.87,48.78V42.65h3V35.43"/><path class="cls-1" d="M47.08,83.39v30.28h0a4.67,4.67,0,0,0-4.67,4.67v5.08H32.5V98A14.58,14.58,0,0,1,47.08,83.39Z"/><path class="cls-1" d="M115.88,83.39v30.28h0a4.67,4.67,0,0,1,4.68,4.67v5.08h9.91V98a14.59,14.59,0,0,0-14.59-14.58Z"/><path class="cls-1" d="M105.9,86v37.43H57.08V86a8.37,8.37,0,0,1,4.76-7.58l1.9-.93s3.48,23.83,17.75,29.22c14.26-5.39,17.74-29.22,17.74-29.22l1.91.93A8.41,8.41,0,0,1,105.9,86Z"/><path class="cls-1" d="M147.11,128.25H35.83A35.83,35.83,0,0,0,0,164.08v29.17H111.29a35.83,35.83,0,0,0,35.82-35.83Z"/><path class="cls-2" d="M147.11,128.25H258.4a35.83,35.83,0,0,0,35.83-35.83V63.25H182.94a35.84,35.84,0,0,0-35.83,35.83Z"/><path class="cls-2" d="M199.48,170.69h-6.64a16.9,16.9,0,1,1,.19-19.42h6.59c-.37-.74-.43-.87-1-1.88l3.86-3.85c-.93-1.29-.67-.94-1.62-2.24l-4.84,2.5c-1-1-.93-.93-1.89-1.89l2.48-4.84-2.22-1.64-3.85,3.88-2.37-1.21.86-5.37-2.63-.87L184,138.73c-1.34-.22-1.3-.21-2.64-.41l-.82-5.39h-2.77l-.84,5.39c-1.34.2-1.3.19-2.64.41l-2.45-4.87-2.63.87.86,5.37-2.37,1.21-3.83-3.88-2.24,1.64,2.48,4.84c-1,1-.91.93-1.88,1.89l-4.84-2.5-1.63,2.24,3.86,3.85-1.2,2.37-5.39-.88c-.49,1.53-.35,1.12-.85,2.65L157,156c-.21,1.35-.21,1.28-.42,2.63l-5.38.83v2.78l5.38.83c.21,1.35.21,1.28.42,2.63l-4.86,2.45c.5,1.52.36,1.12.85,2.64l5.39-.88,1.2,2.39-3.86,3.83,1.63,2.25,4.84-2.5c1,1,.92.93,1.88,1.89l-2.48,4.84,2.24,1.63,3.83-3.86c1.22.61,1.17.58,2.37,1.2L169.2,187c1.52.48,1.1.35,2.63.85l2.45-4.86c1.34.21,1.3.19,2.64.42l.84,5.37h2.77l.82-5.37c1.34-.23,1.3-.21,2.64-.42l2.45,4.86c1.53-.5,1.11-.37,2.63-.85l-.86-5.39,2.37-1.2,3.85,3.86,2.22-1.63-2.48-4.84c1-1,.91-.93,1.89-1.89l4.84,2.5c.95-1.3.69-1,1.62-2.25l-3.86-3.83C199.11,171.42,199.22,171.19,199.48,170.69Z"/><path class="cls-2" d="M247.6,172.28l-3.86,3.83c.93,1.3.67.95,1.62,2.25l4.84-2.5,1.89,1.89-2.49,4.84c1.3.94,1,.69,2.23,1.63l3.85-3.86,2.37,1.2-.86,5.39c1.52.48,1.1.35,2.62.85l2.46-4.86c1.34.21,1.3.19,2.64.42l.82,5.37h2.77l.84-5.37c1.34-.23,1.29-.21,2.64-.42l2.45,4.86c1.53-.5,1.11-.37,2.63-.85l-.86-5.39c1.2-.62,1.15-.59,2.37-1.2l3.83,3.86,2.24-1.63-2.48-4.84c1-1,.91-.93,1.87-1.89l4.85,2.5c.94-1.3.68-1,1.63-2.25l-3.86-3.83,1.2-2.39,5.38.88c.5-1.52.36-1.12.85-2.64l-4.85-2.45c.21-1.35.21-1.28.41-2.63l5.39-.83v-2.78l-5.39-.83c-.2-1.35-.2-1.28-.41-2.63l4.85-2.45c-.49-1.53-.35-1.12-.85-2.65l-5.38.88-1.2-2.37,3.86-3.85c-.95-1.29-.69-.94-1.63-2.24L284,145.8c-1-1-.91-.93-1.87-1.89l2.48-4.84-2.24-1.64-3.83,3.88-2.37-1.21.86-5.37-2.63-.87L272,138.73c-1.35-.22-1.3-.21-2.64-.41l-.84-5.39h-2.77l-.82,5.39c-1.34.2-1.3.19-2.64.41l-2.46-4.87-2.62.87.86,5.37-2.37,1.21-3.85-3.88-2.23,1.64,2.49,4.84-1.89,1.89-4.84-2.5c-1,1.3-.69.95-1.62,2.24l3.86,3.85c-.53,1-.59,1.14-1,1.88h6.59a16.88,16.88,0,1,1,.19,19.42h-6.64C247,171.19,247.15,171.42,247.6,172.28Z"/><path class="cls-2" d="M265.1,164.56a3.67,3.67,0,0,1-3.68-3.69,3.69,3.69,0,0,1,3.68-3.69h9.76a10.06,10.06,0,0,0-18.11-1.1H189.51a10.07,10.07,0,0,0-18.12,1.1h9.77a3.69,3.69,0,0,1,3.68,3.69,3.67,3.67,0,0,1-3.68,3.69h-9.85a10.06,10.06,0,0,0,18.2,1.32h67.24a10.05,10.05,0,0,0,18.19-1.32Z"/></g></g></svg>