<svg xmlns="http://www.w3.org/2000/svg" viewBox="0 0 526.45 342.91"><defs><style>.cls-1{fill:#fff;}.cls-2{fill:#ec3237;}.cls-3{fill:#fffdfd;}</style></defs><g id="Layer_2" data-name="Layer 2"><g id="Layer_1-2" data-name="Layer 1"><path class="cls-1" d="M223.6,31.32v.82H169.1v-.82a7.56,7.56,0,0,1,4.15-6.71l1.46-.84V20.49a13.57,13.57,0,0,1,3.83-9.44,16.3,16.3,0,0,1,3.7-2.84,16.81,16.81,0,0,1,2.89-1.27c.46,3.14,1,6.29,1.41,9.44a2.1,2.1,0,0,0,2.07,1.77,2.08,2.08,0,0,0,2.08-2.09V9.7a23.81,23.81,0,0,0-1.51-8.35,19.47,19.47,0,0,1,3.66-1A21.91,21.91,0,0,1,196.19,0a18.71,18.71,0,0,1,3.67.32,19.65,19.65,0,0,1,3.65,1A24,24,0,0,0,202,9.7v6.36a2.08,2.08,0,0,0,2.08,2.09,2.1,2.1,0,0,0,2.07-1.77c.46-3.15,1-6.3,1.41-9.44a16.81,16.81,0,0,1,2.89,1.27,16.3,16.3,0,0,1,3.7,2.84A13.57,13.57,0,0,1,218,20.49v3.28l1.46.84A7.56,7.56,0,0,1,223.6,31.32Z"/><path class="cls-1" d="M177.7,35.14l14.85-1.4-19.89-.17v9.55h-1.94s-.4,6.5,2.46,9V56.2l-6,4.84h5.71v4.2s-3,5.78-8.4,7.69c0,0,15.06,2.37,21.21-3.28l.61.42s2.42,1.43,4.59,2.54a11.47,11.47,0,0,0,5.26,1.27h.4a11.51,11.51,0,0,0,8.17-3.37,11.93,11.93,0,0,0,1.69-2l.05,0a23,23,0,0,0,14.24,4.92H228s-6.54-6.22-8.81-11.19V61a32.71,32.71,0,0,0,7,1.38s-6-4.34-6.66-7.56V51.15s2.65-1.26,2.81-3.27V41.64A4.66,4.66,0,0,0,219.49,40V33.57h-3.67v8.28h3.09s-1.07,17.82-15.63,26.79a11.15,11.15,0,0,1-5.86,1.59h-.84a11.45,11.45,0,0,1-6.49-2,42,42,0,0,1-15.51-19.46V42.65h3V35.43"/><path class="cls-1" d="M162.79,83.39v30.28h0a4.67,4.67,0,0,0-4.67,4.67v5.08h-9.91V98a14.58,14.58,0,0,1,14.58-14.58Z"/><path class="cls-1" d="M231.6,83.39v30.28h0a4.67,4.67,0,0,1,4.67,4.67v5.08h9.91V98A14.58,14.58,0,0,0,231.6,83.39Z"/><path class="cls-1" d="M221.61,86v37.43H172.79V86a8.37,8.37,0,0,1,4.76-7.58l1.91-.93s3.47,23.83,17.74,29.22c14.27-5.39,17.74-29.22,17.74-29.22l1.91.93A8.41,8.41,0,0,1,221.61,86Z"/><path class="cls-1" d="M262.83,128.25H151.54a35.83,35.83,0,0,0-35.83,35.83v29.17H227a35.83,35.83,0,0,0,35.83-35.83Z"/><path class="cls-2" d="M262.83,128.25H374.11a35.83,35.83,0,0,0,35.83-35.83V63.25H298.65a35.83,35.83,0,0,0-35.82,35.83Z"/><path class="cls-2" d="M315.19,170.69h-6.64a16.9,16.9,0,1,1,.19-19.42h6.59c-.37-.74-.43-.87-1-1.88l3.86-3.85c-.93-1.29-.67-.94-1.62-2.24l-4.84,2.5-1.89-1.89,2.49-4.84-2.23-1.64-3.85,3.88-2.37-1.21.86-5.37-2.62-.87-2.46,4.87c-1.34-.22-1.3-.21-2.64-.41l-.82-5.39h-2.77l-.84,5.39c-1.34.2-1.29.19-2.64.41l-2.45-4.87-2.63.87.86,5.37-2.37,1.21-3.83-3.88-2.24,1.64,2.48,4.84c-1,1-.91.93-1.87,1.89l-4.84-2.5-1.64,2.24,3.86,3.85-1.2,2.37-5.38-.88c-.5,1.53-.36,1.12-.85,2.65l4.85,2.45c-.21,1.35-.21,1.28-.41,2.63l-5.39.83v2.78l5.39.83c.2,1.35.2,1.28.41,2.63l-4.85,2.45c.49,1.52.35,1.12.85,2.64l5.38-.88,1.2,2.39-3.86,3.83,1.64,2.25,4.84-2.5c1,1,.91.93,1.87,1.89l-2.48,4.84,2.24,1.63,3.83-3.86c1.22.61,1.17.58,2.37,1.2l-.86,5.39c1.52.48,1.1.35,2.63.85l2.45-4.86c1.35.21,1.3.19,2.64.42l.84,5.37h2.77l.82-5.37c1.34-.23,1.3-.21,2.64-.42l2.46,4.86c1.52-.5,1.1-.37,2.62-.85l-.86-5.39,2.37-1.2,3.85,3.86c1.28-.94.93-.69,2.23-1.63l-2.49-4.84,1.89-1.89,4.84,2.5c.95-1.3.69-1,1.62-2.25l-3.86-3.83C314.82,171.42,314.93,171.19,315.19,170.69Z"/><path class="cls-2" d="M363.31,172.28l-3.86,3.83c.93,1.3.67.95,1.62,2.25l4.84-2.5c1,1,.93.93,1.89,1.89l-2.48,4.84,2.22,1.63,3.85-3.86,2.37,1.2L372.9,187c1.52.48,1.1.35,2.63.85l2.45-4.86c1.34.21,1.3.19,2.64.42l.82,5.37h2.77l.84-5.37c1.34-.23,1.3-.21,2.64-.42l2.45,4.86c1.53-.5,1.11-.37,2.63-.85l-.86-5.39c1.2-.62,1.15-.59,2.37-1.2l3.83,3.86,2.24-1.63-2.48-4.84c1-1,.91-.93,1.88-1.89l4.84,2.5,1.63-2.25-3.86-3.83,1.2-2.39,5.39.88c.49-1.52.35-1.12.85-2.64l-4.86-2.45c.21-1.35.21-1.28.42-2.63l5.38-.83v-2.78l-5.38-.83c-.21-1.35-.21-1.28-.42-2.63l4.86-2.45c-.5-1.53-.36-1.12-.85-2.65l-5.39.88-1.2-2.37,3.86-3.85-1.63-2.24-4.84,2.5c-1-1-.92-.93-1.88-1.89l2.48-4.84-2.24-1.64-3.83,3.88-2.37-1.21.86-5.37-2.63-.87-2.45,4.87c-1.34-.22-1.3-.21-2.64-.41l-.84-5.39h-2.77l-.82,5.39c-1.34.2-1.3.19-2.64.41l-2.45-4.87-2.63.87.86,5.37-2.37,1.21-3.85-3.88-2.22,1.64,2.48,4.84c-1,1-.91.93-1.89,1.89l-4.84-2.5c-.95,1.3-.69.95-1.62,2.24l3.86,3.85c-.53,1-.59,1.14-1,1.88h6.59a16.88,16.88,0,1,1,.19,19.42h-6.64C362.75,171.19,362.86,171.42,363.31,172.28Z"/><path class="cls-2" d="M380.81,164.56a3.67,3.67,0,0,1-3.68-3.69,3.69,3.69,0,0,1,3.68-3.69h9.77a10.07,10.07,0,0,0-18.12-1.1H305.22a10.06,10.06,0,0,0-18.11,1.1h9.76a3.69,3.69,0,0,1,3.68,3.69,3.67,3.67,0,0,1-3.68,3.69H287a10.05,10.05,0,0,0,18.19,1.32h67.24a10.06,10.06,0,0,0,18.2-1.32Z"/><path class="cls-2" d="M37.21,247.5a73,73,0,0,0-10.31-3.75,73.13,73.13,0,0,1-7.18-2.5,12.5,12.5,0,0,1-4.28-2.81,5.89,5.89,0,0,1-1.72-4.35A7.15,7.15,0,0,1,16,228.36a8.9,8.9,0,0,1,6.06-2,10.62,10.62,0,0,1,7,2.21,7.54,7.54,0,0,1,2.83,5.57H46.21q-.66-8.81-6.91-13.74T23,215.52a29.36,29.36,0,0,0-11.89,2.3,18.26,18.26,0,0,0-8.06,6.62A17.65,17.65,0,0,0,.18,234.55c0,4.12.93,7.43,2.83,9.89A18,18,0,0,0,9.78,250,76.47,76.47,0,0,0,20,253.67a76,76,0,0,1,7.28,2.39A12.39,12.39,0,0,1,31.73,259a6.72,6.72,0,0,1,1.77,4.79,7.22,7.22,0,0,1-2.6,5.77,10.72,10.72,0,0,1-7.15,2.19,10,10,0,0,1-7-2.33A9.1,9.1,0,0,1,13.92,263H0a17.81,17.81,0,0,0,3.24,10.42,20,20,0,0,0,8.59,6.74A30.32,30.32,0,0,0,24,282.55a26.86,26.86,0,0,0,12.34-2.67,19.15,19.15,0,0,0,7.89-7.18A18.73,18.73,0,0,0,47,263c0-4.07-1-7.34-2.89-9.84A18.33,18.33,0,0,0,37.21,247.5Z"/><polygon class="cls-2" points="96.28 216.53 49.38 216.53 49.38 229.3 66.02 229.3 66.02 280.25 78.61 280.25 78.61 229.3 96.28 229.3 96.28 216.53"/><polygon class="cls-2" points="142.23 280.26 142.23 267.49 115.84 267.49 115.84 254.78 142.23 254.78 142.23 242.01 115.84 242.01 115.84 229.3 142.23 229.3 142.23 216.53 115.84 216.53 103.25 216.53 103.25 229.3 103.25 242.01 103.25 254.78 103.25 267.49 103.25 280.26 115.84 280.26 142.23 280.26"/><path class="cls-2" d="M164.76,261.66h11.55a22.57,22.57,0,1,0,0-45.13H152.17v63.72h12.59Zm0-32.91h10.45a10.46,10.46,0,1,1,0,20.91H164.76Z"/><path class="cls-2" d="M367.24,248.67a71.71,71.71,0,0,0-10.16-3.7,75,75,0,0,1-7.09-2.45,12.76,12.76,0,0,1-4.2-2.77,5.81,5.81,0,0,1-1.69-4.29,7,7,0,0,1,2.25-5.64,8.8,8.8,0,0,1,6-1.94,10.4,10.4,0,0,1,6.89,2.18,7.46,7.46,0,0,1,2.81,5.49H376.1q-.64-8.67-6.81-13.54t-16-4.84a28.88,28.88,0,0,0-11.71,2.27,18.12,18.12,0,0,0-8,6.51,17.57,17.57,0,0,0-2.82,10c0,4.05.92,7.31,2.79,9.73a17.43,17.43,0,0,0,6.67,5.45,73.63,73.63,0,0,0,10.1,3.65q4.57,1.31,7.18,2.35a12.6,12.6,0,0,1,4.34,2.91,6.64,6.64,0,0,1,1.74,4.72,7.1,7.1,0,0,1-2.56,5.68,10.6,10.6,0,0,1-7,2.16,9.87,9.87,0,0,1-6.91-2.3,9.05,9.05,0,0,1-2.79-6.29H330.57a17.73,17.73,0,0,0,3.2,10.26,19.9,19.9,0,0,0,8.45,6.64,29.9,29.9,0,0,0,12,2.31,26.41,26.41,0,0,0,12.16-2.63,18.71,18.71,0,0,0,7.77-7.07,18.22,18.22,0,0,0,2.67-9.6,15.47,15.47,0,0,0-2.84-9.68A18.13,18.13,0,0,0,367.24,248.67Z"/><polygon class="cls-2" points="425.41 218.16 379.22 218.16 379.22 230.74 395.61 230.74 395.61 280.93 408.01 280.93 408.01 230.74 425.41 230.74 425.41 218.16"/><polygon class="cls-2" points="432.28 218.16 432.28 230.74 432.28 243.26 432.28 255.84 432.28 268.36 432.28 280.93 444.68 280.93 470.67 280.93 470.67 268.36 444.68 268.36 444.68 255.84 470.67 255.84 470.67 243.26 444.68 243.26 444.68 230.74 470.67 230.74 470.67 218.16 444.68 218.16 432.28 218.16"/><path class="cls-2" d="M504.23,218.16H480.47v62.77h12.4V262.62h11.36a22.23,22.23,0,0,0,0-44.46Zm-1.07,32.63H492.87V230.2h10.29a10.3,10.3,0,1,1,0,20.59Z"/><path class="cls-3" d="M253.77,249.1c.21-.19.43-.39.63-.59A16.71,16.71,0,0,0,242.59,220H218.26v58.51h27.17a15.88,15.88,0,0,0,8.34-29.39ZM228.22,229h12.47a7.73,7.73,0,0,1,7.74,7.74v.81a7.73,7.73,0,0,1-7.74,7.74H228.22Zm22.65,34a7.74,7.74,0,0,1-7.74,7.74H228.69V254.34h14.44a7.74,7.74,0,0,1,7.74,7.74Z"/><polygon class="cls-3" points="288.78 243.72 275.19 219.98 263.93 219.98 283.44 254.34 283.44 280.38 294.69 280.38 294.69 253.36 313.62 219.98 302.37 219.98 288.78 243.72"/><polygon class="cls-1" points="58.86 315.21 67.39 315.21 67.39 342.62 69.31 342.62 69.31 315.21 77.85 315.21 77.85 313.64 58.86 313.64 58.86 315.21"/><polygon class="cls-1" points="82.9 342.62 98.05 342.62 98.05 341.05 84.83 341.05 84.83 328.32 97.42 328.32 97.42 326.75 84.83 326.75 84.83 315.21 98.05 315.21 98.05 313.64 82.9 313.64 82.9 342.62"/><polygon class="cls-1" points="155.65 327.02 138.16 327.02 138.16 313.64 136.23 313.64 136.23 342.62 138.16 342.62 138.16 328.59 155.65 328.59 155.65 342.62 157.58 342.62 157.58 313.64 155.65 313.64 155.65 327.02"/><polygon class="cls-1" points="184.12 339.54 166.54 313.69 164.61 313.69 164.61 342.62 166.54 342.62 166.54 316.71 184.12 342.62 186.03 342.62 186.03 313.69 184.12 313.69 184.12 339.54"/><rect class="cls-1" x="193.09" y="313.64" width="1.91" height="28.98"/><path class="cls-1" d="M222.42,339.34a13.08,13.08,0,0,1-7.27,1.92,12.36,12.36,0,0,1-6.28-1.61,11.51,11.51,0,0,1-4.43-4.56,14,14,0,0,1-1.63-6.91,14.39,14.39,0,0,1,1.63-7,11.37,11.37,0,0,1,4.43-4.58,12.55,12.55,0,0,1,6.28-1.59,13.08,13.08,0,0,1,7.27,1.92,10.63,10.63,0,0,1,3.08,3h2.32a12.92,12.92,0,0,0-4-4.3,15.31,15.31,0,0,0-8.62-2.31,14.22,14.22,0,0,0-7.32,1.9,13.42,13.42,0,0,0-5.12,5.26,16.6,16.6,0,0,0,0,15.27,13.33,13.33,0,0,0,5.12,5.25,14.39,14.39,0,0,0,7.32,1.87,15.31,15.31,0,0,0,8.62-2.31,13.18,13.18,0,0,0,4.62-5.41h-2.23A10.59,10.59,0,0,1,222.42,339.34Z"/><path class="cls-1" d="M124.79,339.34a13.11,13.11,0,0,1-7.27,1.92,12.36,12.36,0,0,1-6.28-1.61,11.47,11.47,0,0,1-4.44-4.56,14.14,14.14,0,0,1-1.62-6.91,14.5,14.5,0,0,1,1.62-7,11.33,11.33,0,0,1,4.44-4.58,12.55,12.55,0,0,1,6.28-1.59,13.11,13.11,0,0,1,7.27,1.92,10.63,10.63,0,0,1,3.08,3h2.32a13,13,0,0,0-4-4.3,15.33,15.33,0,0,0-8.62-2.31,14.22,14.22,0,0,0-7.32,1.9,13.51,13.51,0,0,0-5.13,5.26,16.68,16.68,0,0,0,0,15.27A13.42,13.42,0,0,0,110.2,341a14.39,14.39,0,0,0,7.32,1.87,15.33,15.33,0,0,0,8.62-2.31,13.09,13.09,0,0,0,4.61-5.41h-2.22A10.59,10.59,0,0,1,124.79,339.34Z"/><path class="cls-1" d="M241.31,314.31l-11,28.31h2.07l2.87-7.43h14.21l2.87,7.43h2.09l-11-28.31Zm-5.47,19.31,6.53-16.88,6.49,16.88Z"/><polygon class="cls-1" points="261.16 313.64 259.23 313.64 259.23 342.62 272.29 342.62 272.29 341.05 261.16 341.05 261.16 313.64"/><path class="cls-1" d="M304.84,328.86a36.43,36.43,0,0,0-4.67-1.51,30,30,0,0,1-4.2-1.3,6.61,6.61,0,0,1-2.64-1.9,5.56,5.56,0,0,1,1-7.59,7.88,7.88,0,0,1,5-1.58,8.91,8.91,0,0,1,3.82.75,6.79,6.79,0,0,1,2.47,1.91,6.41,6.41,0,0,1,1.14,2.28h2a7.32,7.32,0,0,0-2.9-4.66,10,10,0,0,0-6.4-1.91,11.42,11.42,0,0,0-4.82,1,7.85,7.85,0,0,0-3.22,2.71,6.7,6.7,0,0,0-1.14,3.79,6.6,6.6,0,0,0,1.23,4.22,7.38,7.38,0,0,0,3,2.29,33.39,33.39,0,0,0,4.67,1.49,37.22,37.22,0,0,1,4.2,1.32A6.42,6.42,0,0,1,306,332a5,5,0,0,1,1,3.33,5.42,5.42,0,0,1-.88,3,6.13,6.13,0,0,1-2.54,2.13,8.92,8.92,0,0,1-3.86.79c-2.54,0-4.42-.59-5.66-1.76a7,7,0,0,1-2.2-4.06h-2a7.38,7.38,0,0,0,1.39,3.77,8.24,8.24,0,0,0,3.39,2.67,12.16,12.16,0,0,0,5.09,1,10.77,10.77,0,0,0,5-1.08,8.18,8.18,0,0,0,3.14-2.83,7,7,0,0,0,1.06-3.68,6.59,6.59,0,0,0-1.22-4.19A7.45,7.45,0,0,0,304.84,328.86Z"/><polygon class="cls-1" points="314.76 342.62 329.9 342.62 329.9 341.05 316.69 341.05 316.69 328.88 328.62 328.88 328.62 327.31 316.69 327.31 316.69 315.21 329.9 315.21 329.9 313.64 314.76 313.64 314.76 342.62"/><path class="cls-1" d="M352,327.45a8,8,0,0,0,1.94-5.51,7.77,7.77,0,0,0-2.5-6c-1.66-1.51-4.15-2.27-7.49-2.27h-8.24v29h1.93V330.29h6.57l7.68,12.33h2.31l-7.85-12.5A8.9,8.9,0,0,0,352,327.45Zm-8,1.27h-6.4V315.3H344q8,0,8,6.64a6.54,6.54,0,0,1-2,4.92Q348,328.72,344,328.72Z"/><polygon class="cls-1" points="369.78 340.44 359.41 313.64 357.31 313.64 368.71 342.62 370.84 342.62 382.27 313.64 380.24 313.64 369.78 340.44"/><rect class="cls-1" x="386.93" y="313.64" width="1.93" height="28.98"/><path class="cls-1" d="M402.72,316.6A12.45,12.45,0,0,1,409,315a13.08,13.08,0,0,1,7.27,1.91,10.72,10.72,0,0,1,4.25,5.23h2.22a13.29,13.29,0,0,0-5.12-6.47,15.28,15.28,0,0,0-8.62-2.33,14.15,14.15,0,0,0-7.32,1.91,13.51,13.51,0,0,0-5.12,5.27,16.58,16.58,0,0,0,0,15.26,13.24,13.24,0,0,0,5.12,5.24,14.23,14.23,0,0,0,7.32,1.88,15.28,15.28,0,0,0,8.62-2.31,13.29,13.29,0,0,0,5.12-6.47h-2.22a10.67,10.67,0,0,1-4.25,5.21,13.09,13.09,0,0,1-7.27,1.93,12.28,12.28,0,0,1-6.28-1.63,11.39,11.39,0,0,1-4.43-4.54,14.18,14.18,0,0,1-1.63-6.92,14.5,14.5,0,0,1,1.63-7A11.31,11.31,0,0,1,402.72,316.6Z"/><polygon class="cls-1" points="428.76 342.62 443.91 342.62 443.91 341.05 430.68 341.05 430.68 328.88 442.63 328.88 442.63 327.31 430.68 327.31 430.68 315.21 443.91 315.21 443.91 313.64 428.76 313.64 428.76 342.62"/><path class="cls-1" d="M463.44,328.86a35.85,35.85,0,0,0-4.69-1.51,31.76,31.76,0,0,1-4.2-1.3,6.51,6.51,0,0,1-2.61-1.9,5,5,0,0,1-1.09-3.37,5.09,5.09,0,0,1,2.06-4.22,8,8,0,0,1,5-1.58,8.91,8.91,0,0,1,3.82.75,6.63,6.63,0,0,1,2.47,1.91,5.81,5.81,0,0,1,1.14,2.28h2.06a7.42,7.42,0,0,0-2.91-4.66,10,10,0,0,0-6.4-1.91,11.54,11.54,0,0,0-4.83,1,7.69,7.69,0,0,0-3.21,2.71,6.7,6.7,0,0,0-1.14,3.79,6.78,6.78,0,0,0,1.21,4.22,7.51,7.51,0,0,0,3,2.29,35.45,35.45,0,0,0,4.68,1.49,37.22,37.22,0,0,1,4.2,1.32,6.45,6.45,0,0,1,2.61,1.86,5,5,0,0,1,1.05,3.33,5.51,5.51,0,0,1-.9,3,6,6,0,0,1-2.55,2.13,8.92,8.92,0,0,1-3.86.79q-3.78,0-5.66-1.76a7,7,0,0,1-2.18-4.06h-2a7.56,7.56,0,0,0,1.39,3.77,8.31,8.31,0,0,0,3.39,2.67,12.21,12.21,0,0,0,5.08,1,10.7,10.7,0,0,0,5-1.08,8,8,0,0,0,3.14-2.83,7,7,0,0,0,1.06-3.68,6.59,6.59,0,0,0-1.21-4.19A7.52,7.52,0,0,0,463.44,328.86Z"/></g></g></svg>