<svg xmlns="http://www.w3.org/2000/svg" viewBox="0 0 753.27 473.59"><defs><style>.cls-1{fill:#ec3237;}</style></defs><g id="Layer_2" data-name="Layer 2"><g id="Layer_1-2" data-name="Layer 1"><path d="M317.61,46.57v1.21h-81V46.57c0-4.41,2.36-7.79,6.17-10l2.17-1.24V30.46a20.22,20.22,0,0,1,5.69-14,24.42,24.42,0,0,1,5.51-4.22,24.05,24.05,0,0,1,4.29-1.88c.69,4.67,1.41,9.34,2.1,14a3.1,3.1,0,0,0,6.17-.48V14.42A35.61,35.61,0,0,0,266.44,2,28.63,28.63,0,0,1,271.87.48a31.76,31.76,0,0,1,5-.48,27.6,27.6,0,0,1,5.46.48A29.72,29.72,0,0,1,287.74,2a35.84,35.84,0,0,0-2.24,12.42v9.46a3.11,3.11,0,0,0,6.18.48c.69-4.7,1.4-9.37,2.09-14a23.75,23.75,0,0,1,4.29,1.88,24.42,24.42,0,0,1,5.51,4.22,20.18,20.18,0,0,1,5.69,14v4.88l2.17,1.24C315.25,38.78,317.61,42.16,317.61,46.57Z"/><path d="M249.36,52.24l22.07-2.08-29.56-.25v14.2H239s-.59,9.67,3.65,13.32v6.13l-8.84,7.19h8.49V97s-4.48,8.61-12.5,11.43c0,0,22.4,3.54,31.55-4.87l.9.63s3.6,2.13,6.82,3.78a17.18,17.18,0,0,0,7.83,1.88h.59a17.1,17.1,0,0,0,12.15-5,17.93,17.93,0,0,0,2.51-3l.07.06a34.11,34.11,0,0,0,21.17,7.31h10.75s-9.72-9.25-13.1-16.64V90.67a48.82,48.82,0,0,0,10.37,2s-8.95-6.44-9.9-11.23V76.05s3.93-1.88,4.17-4.87V61.91a6.88,6.88,0,0,0-4.17-2.43V49.91H306V62.23h4.6S309,88.72,287.4,102.06a16.55,16.55,0,0,1-8.71,2.36h-1.26a17.12,17.12,0,0,1-9.65-3,62.58,62.58,0,0,1-23.06-28.95V63.41h4.4V52.67"/><path d="M227.2,124v45h0a7,7,0,0,0-6.95,6.95v7.54H205.52V145.66A21.68,21.68,0,0,1,227.2,124Z"/><path d="M329.5,124v45h0a7,7,0,0,1,6.95,6.95v7.54h14.73V145.66A21.68,21.68,0,0,0,329.5,124Z"/><path d="M314.65,127.84v55.64H242.06V127.84a12.48,12.48,0,0,1,7.08-11.28l2.83-1.38s5.17,35.44,26.38,43.45c21.21-8,26.39-43.45,26.39-43.45l2.83,1.38A12.52,12.52,0,0,1,314.65,127.84Z"/><path d="M375.93,190.68H210.47A53.27,53.27,0,0,0,157.2,244v43.37H322.66a53.27,53.27,0,0,0,53.27-53.27Z"/><path class="cls-1" d="M375.93,190.68H541.39a53.27,53.27,0,0,0,53.27-53.26V94.05H429.2a53.27,53.27,0,0,0-53.27,53.26Z"/><path class="cls-1" d="M453.78,253.79h-9.87a25.13,25.13,0,1,1,.29-28.89H454c-.55-1.09-.64-1.28-1.43-2.79l5.75-5.72-2.41-3.33-7.2,3.72c-1.45-1.43-1.38-1.39-2.81-2.82l3.69-7.19-3.31-2.43-5.72,5.76L437,208.29l1.29-8L434.4,199l-3.64,7.25c-2-.34-1.93-.31-3.94-.62l-1.21-8h-4.12l-1.24,8c-2,.31-1.93.28-3.94.62L412.67,199l-3.91,1.29,1.29,8c-1.79.93-1.72.88-3.53,1.81l-5.7-5.76-3.33,2.43,3.69,7.19c-1.43,1.43-1.36,1.39-2.79,2.82l-7.19-3.72-2.44,3.33,5.75,5.72c-.91,1.79-.88,1.72-1.79,3.53l-8-1.31c-.74,2.26-.52,1.67-1.26,3.93l7.22,3.65c-.31,2-.31,1.91-.62,3.91l-8,1.24v4.12l8,1.24c.31,2,.31,1.91.62,3.91L383.45,250c.74,2.27.52,1.67,1.26,3.94l8-1.32c.91,1.82.88,1.74,1.79,3.56l-5.75,5.69,2.44,3.34,7.19-3.72c1.43,1.43,1.36,1.38,2.79,2.81l-3.69,7.2,3.33,2.43,5.7-5.74c1.81.9,1.74.85,3.53,1.78l-1.29,8,3.91,1.26,3.64-7.22c2,.31,1.93.29,3.94.62l1.24,8h4.12l1.21-8c2-.33,1.93-.31,3.94-.62l3.64,7.22,3.91-1.26-1.29-8c1.82-.93,1.72-.88,3.53-1.78l5.72,5.74,3.31-2.43-3.69-7.2c1.43-1.43,1.36-1.38,2.81-2.81l7.2,3.72c1.4-1.93,1-1.41,2.41-3.34l-5.75-5.69Z"/><path class="cls-1" d="M525.33,256.15l-5.74,5.69c1.38,1.93,1,1.41,2.4,3.34l7.2-3.72c1.45,1.43,1.38,1.38,2.81,2.81l-3.69,7.2,3.31,2.43,5.72-5.74c1.81.9,1.72.85,3.53,1.78l-1.29,8,3.91,1.26,3.64-7.22c2,.31,1.93.29,3.94.62l1.21,8h4.13l1.23-8c2-.33,1.93-.31,3.94-.62l3.64,7.22,3.91-1.26-1.29-8c1.79-.93,1.72-.88,3.53-1.78l5.7,5.74,3.33-2.43-3.69-7.2c1.43-1.43,1.36-1.38,2.79-2.81l7.2,3.72,2.43-3.34-5.75-5.69c.91-1.82.88-1.74,1.79-3.56l8,1.32c.74-2.27.52-1.67,1.26-3.94l-7.22-3.64c.31-2,.31-1.91.62-3.91l8-1.24v-4.12l-8-1.24c-.31-2-.31-1.91-.62-3.91l7.22-3.65c-.74-2.26-.52-1.67-1.26-3.93l-8,1.31c-.91-1.81-.88-1.74-1.79-3.53l5.75-5.72c-1.41-1.93-1-1.4-2.43-3.33l-7.2,3.72c-1.43-1.43-1.36-1.39-2.79-2.82l3.69-7.19-3.33-2.43-5.7,5.76c-1.81-.93-1.74-.88-3.53-1.81l1.29-8L565.22,199l-3.64,7.25c-2-.34-1.93-.31-3.94-.62l-1.23-8h-4.13l-1.21,8c-2,.31-1.93.28-3.94.62L543.49,199l-3.91,1.29,1.29,8-3.53,1.81-5.72-5.76-3.31,2.43L532,214c-1.43,1.43-1.36,1.39-2.81,2.82l-7.2-3.72c-1.4,1.93-1,1.4-2.4,3.33l5.74,5.72c-.79,1.51-.88,1.7-1.43,2.79h9.79a25.08,25.08,0,1,1,.29,28.89h-9.87Z"/><path class="cls-1" d="M551.35,244.66a5.46,5.46,0,0,1-5.48-5.48,5.48,5.48,0,0,1,5.48-5.48h14.51a15,15,0,0,0-26.93-1.65H439A15,15,0,0,0,412,233.7h14.51a5.48,5.48,0,0,1,5.48,5.48,5.45,5.45,0,0,1-5.48,5.48H411.91a15,15,0,0,0,27,2h100a15,15,0,0,0,27.05-2Z"/><polygon points="106.56 436.98 117.84 436.98 117.84 473.2 120.36 473.2 120.36 436.98 131.66 436.98 131.66 434.91 106.56 434.91 106.56 436.98"/><polygon points="138.33 473.2 158.35 473.2 158.35 471.13 140.88 471.13 140.88 454.31 157.52 454.31 157.52 452.23 140.88 452.23 140.88 436.98 158.35 436.98 158.35 434.91 138.33 434.91 138.33 473.2"/><polygon points="234.47 452.59 211.35 452.59 211.35 434.91 208.8 434.91 208.8 473.2 211.35 473.2 211.35 454.66 234.47 454.66 234.47 473.2 237.02 473.2 237.02 434.91 234.47 434.91 234.47 452.59"/><polygon points="272.1 469.13 248.86 434.98 246.31 434.98 246.31 473.2 248.86 473.2 248.86 438.96 272.1 473.2 274.63 473.2 274.63 434.98 272.1 434.98 272.1 469.13"/><rect x="283.94" y="434.91" width="2.53" height="38.3"/><path d="M322.72,468.87a17.37,17.37,0,0,1-9.62,2.54,16.38,16.38,0,0,1-8.29-2.13,15.25,15.25,0,0,1-5.87-6,18.68,18.68,0,0,1-2.14-9.14,19.12,19.12,0,0,1,2.14-9.25,15,15,0,0,1,5.87-6.05,16.56,16.56,0,0,1,8.29-2.1,17.36,17.36,0,0,1,9.62,2.53,14,14,0,0,1,4.06,4h3.07a17.24,17.24,0,0,0-5.36-5.68,20.19,20.19,0,0,0-11.39-3.06,18.89,18.89,0,0,0-9.67,2.51,17.91,17.91,0,0,0-6.77,7,21.92,21.92,0,0,0,0,20.18,17.56,17.56,0,0,0,6.77,6.93,19,19,0,0,0,9.67,2.48,20.18,20.18,0,0,0,11.39-3,17.29,17.29,0,0,0,6.1-7.15h-2.94A14,14,0,0,1,322.72,468.87Z"/><path d="M193.69,468.87a17.34,17.34,0,0,1-9.62,2.54,16.4,16.4,0,0,1-8.29-2.13,15.23,15.23,0,0,1-5.86-6,18.68,18.68,0,0,1-2.15-9.14,19.12,19.12,0,0,1,2.15-9.25,15,15,0,0,1,5.86-6.05,16.59,16.59,0,0,1,8.29-2.1,17.34,17.34,0,0,1,9.62,2.53,14.18,14.18,0,0,1,4.07,4h3.06a17.21,17.21,0,0,0-5.35-5.68,20.22,20.22,0,0,0-11.4-3.06A18.92,18.92,0,0,0,174.4,437a18,18,0,0,0-6.77,7,22,22,0,0,0,0,20.18,17.63,17.63,0,0,0,6.77,6.93,19,19,0,0,0,9.67,2.48,20.22,20.22,0,0,0,11.4-3,17.37,17.37,0,0,0,6.1-7.15h-2.94A14,14,0,0,1,193.69,468.87Z"/><path d="M347.67,435.79,333.13,473.2h2.74l3.79-9.81h18.78l3.79,9.81H365l-14.51-37.41Zm-7.22,25.52,8.63-22.3,8.57,22.3Z"/><polygon points="373.91 434.91 371.36 434.91 371.36 473.2 388.61 473.2 388.61 471.13 373.91 471.13 373.91 434.91"/><path d="M431.63,455a49.56,49.56,0,0,0-6.17-2,37.25,37.25,0,0,1-5.56-1.72,8.68,8.68,0,0,1-3.48-2.5,7.36,7.36,0,0,1,1.31-10,10.41,10.41,0,0,1,6.65-2.1,11.71,11.71,0,0,1,5.06,1,8.79,8.79,0,0,1,3.26,2.53,8.44,8.44,0,0,1,1.5,3h2.7a9.71,9.71,0,0,0-3.84-6.15,13.27,13.27,0,0,0-8.46-2.52,14.8,14.8,0,0,0-6.36,1.31,10.36,10.36,0,0,0-4.27,3.57,8.9,8.9,0,0,0-1.5,5,8.77,8.77,0,0,0,1.62,5.57,9.6,9.6,0,0,0,4,3,44.15,44.15,0,0,0,6.18,2,51.17,51.17,0,0,1,5.55,1.74,8.51,8.51,0,0,1,3.43,2.45,6.62,6.62,0,0,1,1.38,4.41,7.24,7.24,0,0,1-1.16,4,8.12,8.12,0,0,1-3.36,2.82,11.78,11.78,0,0,1-5.1,1.05c-3.36,0-5.84-.79-7.49-2.34a9.27,9.27,0,0,1-2.91-5.36h-2.64a9.69,9.69,0,0,0,1.83,5,10.85,10.85,0,0,0,4.49,3.53,15.86,15.86,0,0,0,6.72,1.31,14.25,14.25,0,0,0,6.62-1.43,10.83,10.83,0,0,0,4.15-3.75,9.16,9.16,0,0,0,1.4-4.86,8.65,8.65,0,0,0-1.62-5.53A9.74,9.74,0,0,0,431.63,455Z"/><polygon points="444.74 473.2 464.75 473.2 464.75 471.13 447.29 471.13 447.29 455.05 463.06 455.05 463.06 452.97 447.29 452.97 447.29 436.98 464.75 436.98 464.75 434.91 444.74 434.91 444.74 473.2"/><path d="M494,453.16a10.49,10.49,0,0,0,2.57-7.29,10.2,10.2,0,0,0-3.31-8q-3.29-3-9.89-3H472.43V473.2H475V456.9h8.67l10.16,16.3h3.05l-10.37-16.51A11.79,11.79,0,0,0,494,453.16Zm-10.51,1.67H475V437.1h8.34q10.55,0,10.56,8.77a8.62,8.62,0,0,1-2.6,6.51C489.54,454,486.92,454.83,483.44,454.83Z"/><polygon points="517.45 470.32 503.74 434.91 500.98 434.91 516.04 473.2 518.85 473.2 533.96 434.91 531.27 434.91 517.45 470.32"/><rect x="540.11" y="434.91" width="2.55" height="38.3"/><path d="M561,438.82a16.46,16.46,0,0,1,8.29-2.1,17.25,17.25,0,0,1,9.6,2.52,14.18,14.18,0,0,1,5.63,6.92h2.93a17.6,17.6,0,0,0-6.77-8.56,20.18,20.18,0,0,0-11.39-3.07,18.73,18.73,0,0,0-9.67,2.52,17.71,17.71,0,0,0-6.77,7,21.88,21.88,0,0,0,0,20.16,17.52,17.52,0,0,0,6.77,6.94,18.9,18.9,0,0,0,9.67,2.48,20.17,20.17,0,0,0,11.39-3,17.6,17.6,0,0,0,6.77-8.56h-2.93a14.06,14.06,0,0,1-5.63,6.89,17.26,17.26,0,0,1-9.6,2.55,16.29,16.29,0,0,1-8.29-2.15,15.13,15.13,0,0,1-5.87-6,18.75,18.75,0,0,1-2.14-9.15,19.12,19.12,0,0,1,2.14-9.25A14.89,14.89,0,0,1,561,438.82Z"/><polygon points="595.4 473.2 615.42 473.2 615.42 471.13 597.93 471.13 597.93 455.05 613.73 455.05 613.73 452.97 597.93 452.97 597.93 436.98 615.42 436.98 615.42 434.91 595.4 434.91 595.4 473.2"/><path d="M641.23,455a49.7,49.7,0,0,0-6.2-2,38.23,38.23,0,0,1-5.55-1.72,8.55,8.55,0,0,1-3.46-2.5,7.3,7.3,0,0,1,1.29-10,10.49,10.49,0,0,1,6.65-2.1,11.67,11.67,0,0,1,5,1,8.83,8.83,0,0,1,3.27,2.53,7.82,7.82,0,0,1,1.5,3h2.72a9.8,9.8,0,0,0-3.84-6.15,13.27,13.27,0,0,0-8.46-2.52,15,15,0,0,0-6.39,1.31,10.2,10.2,0,0,0-4.24,3.57,9.82,9.82,0,0,0,.09,10.58,9.83,9.83,0,0,0,4,3,46.25,46.25,0,0,0,6.17,2,49.37,49.37,0,0,1,5.56,1.74,8.65,8.65,0,0,1,3.45,2.45,6.73,6.73,0,0,1,1.38,4.41,7.19,7.19,0,0,1-1.19,4,7.76,7.76,0,0,1-3.36,2.82,11.72,11.72,0,0,1-5.1,1.05c-3.33,0-5.84-.79-7.48-2.34a9.17,9.17,0,0,1-2.88-5.36H621.5a9.87,9.87,0,0,0,1.83,5,10.94,10.94,0,0,0,4.48,3.53,16.05,16.05,0,0,0,6.72,1.31,14.15,14.15,0,0,0,6.63-1.43,10.45,10.45,0,0,0,4.14-3.75,9.17,9.17,0,0,0,1.41-4.86,8.64,8.64,0,0,0-1.6-5.53A9.88,9.88,0,0,0,641.23,455Z"/><path class="cls-1" d="M50.14,363.46a99.45,99.45,0,0,0-13.89-5q-6.26-1.91-9.68-3.36a17.14,17.14,0,0,1-5.76-3.79,8,8,0,0,1-2.32-5.86c0-3.39,1-5.94,3.08-7.73A12,12,0,0,1,29.74,335q5.9,0,9.46,3a10.2,10.2,0,0,1,3.82,7.5H62.27Q61.39,333.65,53,327T31,320.37a39.5,39.5,0,0,0-16,3.1,24.66,24.66,0,0,0-10.87,8.91A23.93,23.93,0,0,0,.24,346c0,5.55,1.26,10,3.81,13.32a24.32,24.32,0,0,0,9.13,7.46,103.22,103.22,0,0,0,13.82,5q6.26,1.79,9.82,3.21a16.91,16.91,0,0,1,5.93,4,9,9,0,0,1,2.39,6.46,9.69,9.69,0,0,1-3.51,7.77c-2.33,2-5.55,3-9.62,3s-7.15-1.05-9.44-3.15a12.2,12.2,0,0,1-3.81-8.6H0a24.07,24.07,0,0,0,4.36,14,26.94,26.94,0,0,0,11.58,9.08,40.63,40.63,0,0,0,16.45,3.17A36.23,36.23,0,0,0,49,407.1a25.81,25.81,0,0,0,10.63-9.68,25.14,25.14,0,0,0,3.62-13.13c0-5.48-1.28-9.89-3.88-13.25A24.63,24.63,0,0,0,50.14,363.46Z"/><polygon class="cls-1" points="129.74 321.73 66.54 321.73 66.54 338.94 88.96 338.94 88.96 407.6 105.93 407.6 105.93 338.94 129.74 338.94 129.74 321.73"/><polygon class="cls-1" points="191.65 407.6 191.65 390.4 156.1 390.4 156.1 373.27 191.65 373.27 191.65 356.06 156.1 356.06 156.1 338.94 191.65 338.94 191.65 321.73 156.1 321.73 139.13 321.73 139.13 338.94 139.13 356.06 139.13 373.27 139.13 390.4 139.13 407.6 156.1 407.6 191.65 407.6"/><path class="cls-1" d="M222,382.55h15.56a30.41,30.41,0,0,0,0-60.82H205.05V407.6h17Zm0-44.35H236.1a14.09,14.09,0,1,1,0,28.17H222Z"/><path class="cls-1" d="M535.45,363.46a99.45,99.45,0,0,0-13.89-5c-4.17-1.27-7.39-2.39-9.7-3.36a17.4,17.4,0,0,1-5.75-3.79,8,8,0,0,1-2.31-5.86c0-3.39,1-5.94,3.08-7.73a12,12,0,0,1,8.17-2.64q5.9,0,9.44,3a10.22,10.22,0,0,1,3.84,7.5h19.25q-.89-11.86-9.32-18.51t-22-6.63a39.49,39.49,0,0,0-16,3.1,24.83,24.83,0,0,0-10.89,8.91A24,24,0,0,0,485.55,346c0,5.55,1.26,10,3.81,13.32a24.16,24.16,0,0,0,9.13,7.46,103.22,103.22,0,0,0,13.82,5q6.26,1.79,9.82,3.21a17.28,17.28,0,0,1,5.93,4,9.11,9.11,0,0,1,2.39,6.46,9.69,9.69,0,0,1-3.51,7.77c-2.33,2-5.55,3-9.62,3s-7.15-1.05-9.47-3.15a12.45,12.45,0,0,1-3.81-8.6H485.29a24.15,24.15,0,0,0,4.38,14,27,27,0,0,0,11.56,9.08,40.72,40.72,0,0,0,16.44,3.17,36.18,36.18,0,0,0,16.64-3.59,25.69,25.69,0,0,0,10.63-9.68,25,25,0,0,0,3.64-13.13c0-5.48-1.31-9.89-3.88-13.25A24.78,24.78,0,0,0,535.45,363.46Z"/><polygon class="cls-1" points="615.04 321.73 551.84 321.73 551.84 338.94 574.27 338.94 574.27 407.6 591.24 407.6 591.24 338.94 615.04 338.94 615.04 321.73"/><polygon class="cls-1" points="624.43 321.73 624.43 338.94 624.43 356.06 624.43 373.27 624.43 390.4 624.43 407.6 641.4 407.6 676.95 407.6 676.95 390.4 641.4 390.4 641.4 373.27 676.95 373.27 676.95 356.06 641.4 356.06 641.4 338.94 676.95 338.94 676.95 321.73 641.4 321.73 624.43 321.73"/><path class="cls-1" d="M722.86,321.73h-32.5V407.6h17V382.55h15.53a30.41,30.41,0,0,0,0-60.82Zm-1.45,44.64H707.33V338.2h14.08a14.09,14.09,0,1,1,0,28.17Z"/><path d="M359.88,364.68c.29-.27.6-.55.88-.84a23.55,23.55,0,0,0-16.65-40.23h-34.3v82.51h38.3a22.39,22.39,0,0,0,11.77-41.44Zm-36-28.29h17.59a10.9,10.9,0,0,1,10.91,10.91v1.15a10.9,10.9,0,0,1-10.91,10.91H323.85Zm31.93,48a10.91,10.91,0,0,1-10.91,10.92H324.52V372.06h20.35A10.91,10.91,0,0,1,355.78,383Z"/><polygon points="409.24 357.1 390.08 323.61 374.21 323.61 401.71 372.06 401.71 408.79 417.58 408.79 417.58 370.68 444.27 323.61 428.4 323.61 409.24 357.1"/></g></g></svg>